<svg version="1.1" id="logo-svg" xmlns="http://www.w3.org/2000/svg" xmlns:xlink="http://www.w3.org/1999/xlink" x="0px" y="0px" viewBox="0 0 438 77.5" style="enable-background:new 0 0 438 77.5; max-width: 300px;" xml:space="preserve">
    <title>Craveiro</title>
    <style type="text/css">
        .st0{fill:#FFFFFF;stroke:#000000;stroke-width:3;stroke-miterlimit:10;}
    </style>
    <g>
      <path class="st0" d="M40.1,24.3C23.6,20.5,8,29.2,3.8,42.5c-3.1,9.8,0.1,21.6,8,27.6c11.2,8.6,31.8,5.4,43.6-11.6"/>
      <path class="st0" d="M73.5,30.1c1,3.1,2.4,7.9,3.6,13.8c2.3,10.9,2.2,16.5,3.6,16.7C83.5,61,83.3,39.4,96,27.2
        c9.4-9,23.2-10.1,34.1-9.4"/>
      <path class="st0" d="M154.1,14.2C165.5,3.7,169.8,2.8,171.6,4c5.4,3.5-3.4,31.1-0.7,43.6c0.8,3.6,2.1,7.3,2.1,7.3
        c0.5,1.6,1,2.7,1.1,3c0.8,1.9,2.4,5.8,2.7,5.8c0.5-0.2-1-16.9-10.9-21.8c-4.2-2.1-8.6-1.3-11.6-0.7c-7.7,1.4-18.6,7.1-18.2,13.8
        c0.4,5.8,9.3,10.6,16.7,10.9c7.4,0.3,12.8-3.7,14.5-5.1"/>
      <path class="st0" d="M151.2,41"/>
      <path class="st0" d="M194.1,20.1c-0.2,1.4-3.5,23.9,10.3,33.8c2,1.4,5.4,3.9,9.3,3.3c8.6-1.4,15.1-17.7,15.8-41.4"/>
      <path class="st0" d="M254.5,38.7c14-3,22.1-11.9,21.2-19.1c-0.5-4.4-4.5-9.1-8.7-9.3c-6.8-0.3-13.5,11.1-13.6,21.2
        c0,1.6,0,14.4,10.3,20.2c8,4.5,18.7,2.8,26.1-4.4"/>
      <path class="st0" d="M310.1,27.8c-4.2,12.4-2.6,23.8,3.8,28.3c1.3,0.9,3.2,1.9,6,2.2"/>
      <path class="st0" d="M334.6,25.6c-0.5,5.2-0.6,13.9,3.8,22.9c1.5,3.1,2.2,5.5,3.3,5.4c3.7-0.3-2.8-30.9,12.5-43.6
        c4.1-3.4,10.7-6.3,18-5.4c7.5,0.9,12.4,5.3,14.2,7.1"/>
      <path class="st0" d="M413.6,21.8c-8.7,4.3-12.7,13.4-10.3,20.2c3.1,9.1,17.2,12.8,25.6,6.5c6.4-4.8,9.3-15.3,3.8-22.3
        C428.5,20.8,420.6,18.9,413.6,21.8z"/>
    </g>
 </svg>